; NON-PLATED HOLES START AT T1
; THROUGH (PLATED) HOLES START AT T100
M48
INCH
T1C0.129921
T100C0.031496
T101C0.035000
T102C0.035433
T103C0.015748
T104C0.042000
T105C0.040000
T106C0.098425
%
T1
X018709Y026673
X000959Y026673
X018709Y000923
X000959Y000923
T100
X007259Y023819
X004660Y023819
T101
X004959Y004423
X011709Y025923
X008209Y004423
X002459Y004423
X015709Y020673
X011709Y010173
X015709Y025923
X015709Y015423
X003959Y004423
X011709Y015423
X010709Y004423
X001459Y004423
X007209Y004423
X015709Y010173
X011709Y020673
X009709Y004423
T102
X009959Y014423
X001959Y015423
X004542Y024921
X009959Y011423
X009959Y017423
X001959Y008423
X001959Y019423
X009959Y009423
X001959Y010423
X001959Y023423
X001959Y022423
X009959Y012423
X001959Y012423
X001959Y009423
X009959Y010423
X009959Y016423
X001959Y017423
X009959Y015423
X009959Y013423
X009959Y008423
X001959Y013423
X007377Y024921
X009959Y019423
X001959Y021423
X001959Y011423
X009959Y018423
X001959Y018423
X001959Y016423
X001959Y020423
X001959Y014423
T103
X015711Y005662
X008703Y004930
X013959Y008931
X018953Y022162
X018953Y016932
X016469Y013167
X017463Y022162
X014456Y013167
X010964Y022159
X016704Y011676
X009452Y014421
X016966Y012435
X009461Y001923
X017201Y016932
X003228Y002176
X015449Y017429
X011213Y001923
X010699Y026422
X009978Y019918
X012468Y013167
X016469Y014422
X012443Y002903
X009958Y021430
T104
X004209Y000923
X015209Y024673
X012709Y016923
X015459Y008923
X005209Y000923
X009459Y000923
X014709Y022173
X010459Y000923
X012229Y024673
X013709Y016923
X015209Y019423
X013709Y001943
X013709Y004923
X015459Y014173
X014709Y016923
X003209Y000923
X012709Y011673
X012959Y006423
X014709Y011673
X012229Y019423
X014959Y006423
X012479Y014173
X013959Y006423
X008459Y000923
X013709Y022173
X013709Y011673
X012709Y022173
X012479Y008923
T105
X017459Y023295
X017459Y012795
X017459Y014173
X017459Y024673
X017459Y019423
X017459Y004423
X017459Y018045
X017459Y008923
X017459Y003045
X017459Y007545
T106
X009459Y024923
X002459Y024923
T00
M30
