G04 MADE WITH FRITZING*
G04 WWW.FRITZING.ORG*
G04 DOUBLE SIDED*
G04 HOLES PLATED*
G04 CONTOUR ON CENTER OF CONTOUR VECTOR*
%ASAXBY*%
%FSLAX23Y23*%
%MOIN*%
%OFA0B0*%
%SFA1.0B1.0*%
%ADD10C,0.039370*%
%ADD11C,0.082000*%
%ADD12C,0.075000*%
%ADD13C,0.080000*%
%ADD14C,0.138425*%
%ADD15C,0.095000*%
%ADD16C,0.051496*%
%ADD17C,0.062000*%
%ADD18R,0.082000X0.082000*%
%ADD19R,0.075000X0.075000*%
%ADD20R,0.080000X0.080000*%
%ADD21R,0.095000X0.095000*%
%ADD22C,0.024000*%
%ADD23R,0.001000X0.001000*%
%LNCOPPER1*%
G90*
G70*
G54D10*
X1070Y2642D03*
X1096Y2216D03*
X996Y2143D03*
X1746Y2216D03*
X1895Y2216D03*
X1720Y1693D03*
X1895Y1693D03*
X1545Y1743D03*
X1647Y1442D03*
X1446Y1317D03*
X1247Y1317D03*
X1670Y1168D03*
X1571Y566D03*
X1697Y1244D03*
X1647Y1317D03*
X946Y192D03*
X1121Y192D03*
X1396Y893D03*
X870Y493D03*
X1244Y290D03*
X323Y218D03*
X998Y1992D03*
X945Y1442D03*
G54D11*
X321Y92D03*
X421Y92D03*
X521Y92D03*
G54D12*
X721Y442D03*
X821Y442D03*
X971Y442D03*
X1071Y442D03*
G54D11*
X1296Y642D03*
X1396Y642D03*
X1496Y642D03*
X1271Y1167D03*
X1371Y1167D03*
X1471Y1167D03*
X1271Y1692D03*
X1371Y1692D03*
X1471Y1692D03*
X1271Y2217D03*
X1371Y2217D03*
X1471Y2217D03*
G54D13*
X1746Y2467D03*
X1746Y2330D03*
X1746Y892D03*
X1746Y755D03*
X1746Y1417D03*
X1746Y1280D03*
X1746Y1942D03*
X1746Y1805D03*
G54D14*
X246Y2492D03*
G54D15*
X738Y2492D03*
G54D16*
X726Y2382D03*
G54D17*
X196Y842D03*
X196Y942D03*
X196Y1042D03*
X196Y1142D03*
X196Y1242D03*
X196Y1342D03*
X196Y1442D03*
X196Y1542D03*
X196Y1642D03*
G54D14*
X946Y2492D03*
G54D17*
X196Y1742D03*
X196Y1842D03*
X196Y1942D03*
X196Y2042D03*
X196Y2142D03*
X196Y2242D03*
X196Y2342D03*
X996Y1942D03*
X996Y1842D03*
X996Y1742D03*
X996Y1642D03*
X996Y1542D03*
X996Y1442D03*
X996Y1342D03*
X996Y1242D03*
X996Y1142D03*
X996Y1042D03*
X996Y942D03*
X996Y842D03*
G54D16*
X466Y2382D03*
G54D15*
X454Y2492D03*
G54D11*
X846Y92D03*
X946Y92D03*
X1046Y92D03*
X1546Y892D03*
X1248Y892D03*
X1546Y1417D03*
X1248Y1417D03*
X1521Y1942D03*
X1223Y1942D03*
X1521Y2467D03*
X1223Y2467D03*
G54D12*
X1171Y1017D03*
X1571Y1017D03*
X1571Y1542D03*
X1171Y1542D03*
X1571Y2067D03*
X1171Y2067D03*
X1571Y2592D03*
X1171Y2592D03*
X396Y442D03*
X496Y442D03*
X146Y442D03*
X246Y442D03*
G54D11*
X1371Y492D03*
X1371Y194D03*
G54D13*
X1746Y442D03*
X1746Y305D03*
G54D18*
X321Y92D03*
G54D19*
X721Y442D03*
X971Y442D03*
G54D18*
X1296Y642D03*
X1271Y1167D03*
X1271Y1692D03*
X1271Y2217D03*
G54D20*
X1746Y2467D03*
X1746Y892D03*
X1746Y1417D03*
X1746Y1942D03*
G54D21*
X738Y2492D03*
X454Y2492D03*
G54D18*
X846Y92D03*
X1547Y892D03*
X1547Y1417D03*
X1522Y1942D03*
X1522Y2467D03*
G54D19*
X396Y442D03*
X146Y442D03*
G54D18*
X1371Y493D03*
G54D20*
X1746Y442D03*
G54D22*
X1095Y1842D02*
X1545Y1842D01*
D02*
X1545Y1842D02*
X1545Y1762D01*
D02*
X1096Y2197D02*
X1095Y1842D01*
D02*
X796Y2292D02*
X796Y1442D01*
D02*
X1070Y2292D02*
X796Y2292D01*
D02*
X1070Y2623D02*
X1070Y2292D01*
D02*
X796Y1442D02*
X926Y1442D01*
D02*
X1876Y1693D02*
X1739Y1693D01*
D02*
X1765Y2216D02*
X1876Y2216D01*
D02*
X1427Y1317D02*
X1266Y1317D01*
D02*
X1678Y1244D02*
X1521Y1244D01*
D02*
X1521Y1244D02*
X1459Y1304D01*
D02*
X1590Y566D02*
X1720Y566D01*
D02*
X1720Y566D02*
X1846Y741D01*
D02*
X1846Y741D02*
X1846Y1168D01*
D02*
X1846Y1168D02*
X1689Y1168D01*
D02*
X1647Y1336D02*
X1647Y1423D01*
D02*
X420Y290D02*
X1225Y290D01*
D02*
X338Y229D02*
X420Y290D01*
D02*
X870Y512D02*
X870Y741D01*
D02*
X1247Y741D02*
X1383Y880D01*
D02*
X870Y741D02*
X1247Y741D01*
D02*
X965Y192D02*
X1102Y192D01*
D02*
X996Y2124D02*
X998Y2011D01*
G54D23*
X425Y2403D02*
X461Y2403D01*
X470Y2403D02*
X486Y2403D01*
X705Y2403D02*
X720Y2403D01*
X730Y2403D02*
X766Y2403D01*
X424Y2402D02*
X458Y2402D01*
X473Y2402D02*
X486Y2402D01*
X705Y2402D02*
X717Y2402D01*
X733Y2402D02*
X766Y2402D01*
X424Y2401D02*
X455Y2401D01*
X475Y2401D02*
X486Y2401D01*
X705Y2401D02*
X715Y2401D01*
X735Y2401D02*
X766Y2401D01*
X424Y2400D02*
X454Y2400D01*
X477Y2400D02*
X486Y2400D01*
X705Y2400D02*
X713Y2400D01*
X737Y2400D02*
X766Y2400D01*
X424Y2399D02*
X452Y2399D01*
X479Y2399D02*
X486Y2399D01*
X705Y2399D02*
X712Y2399D01*
X738Y2399D02*
X766Y2399D01*
X424Y2398D02*
X451Y2398D01*
X480Y2398D02*
X486Y2398D01*
X705Y2398D02*
X711Y2398D01*
X740Y2398D02*
X766Y2398D01*
X424Y2397D02*
X450Y2397D01*
X481Y2397D02*
X486Y2397D01*
X705Y2397D02*
X710Y2397D01*
X741Y2397D02*
X766Y2397D01*
X424Y2396D02*
X449Y2396D01*
X482Y2396D02*
X486Y2396D01*
X705Y2396D02*
X709Y2396D01*
X741Y2396D02*
X766Y2396D01*
X424Y2395D02*
X448Y2395D01*
X483Y2395D02*
X486Y2395D01*
X705Y2395D02*
X708Y2395D01*
X742Y2395D02*
X766Y2395D01*
X424Y2394D02*
X448Y2394D01*
X483Y2394D02*
X486Y2394D01*
X705Y2394D02*
X707Y2394D01*
X743Y2394D02*
X766Y2394D01*
X424Y2393D02*
X447Y2393D01*
X484Y2393D02*
X486Y2393D01*
X705Y2393D02*
X707Y2393D01*
X744Y2393D02*
X766Y2393D01*
X424Y2392D02*
X447Y2392D01*
X484Y2392D02*
X486Y2392D01*
X705Y2392D02*
X706Y2392D01*
X744Y2392D02*
X766Y2392D01*
X424Y2391D02*
X446Y2391D01*
X485Y2391D02*
X486Y2391D01*
X705Y2391D02*
X706Y2391D01*
X745Y2391D02*
X766Y2391D01*
X424Y2390D02*
X446Y2390D01*
X485Y2390D02*
X486Y2390D01*
X705Y2390D02*
X705Y2390D01*
X745Y2390D02*
X766Y2390D01*
X424Y2389D02*
X445Y2389D01*
X486Y2389D02*
X486Y2389D01*
X705Y2389D02*
X705Y2389D01*
X745Y2389D02*
X766Y2389D01*
X424Y2388D02*
X445Y2388D01*
X486Y2388D02*
X486Y2388D01*
X705Y2388D02*
X705Y2388D01*
X746Y2388D02*
X766Y2388D01*
X424Y2387D02*
X445Y2387D01*
X746Y2387D02*
X766Y2387D01*
X424Y2386D02*
X444Y2386D01*
X746Y2386D02*
X766Y2386D01*
X424Y2385D02*
X444Y2385D01*
X746Y2385D02*
X766Y2385D01*
X424Y2384D02*
X444Y2384D01*
X746Y2384D02*
X766Y2384D01*
X424Y2383D02*
X444Y2383D01*
X746Y2383D02*
X766Y2383D01*
X424Y2382D02*
X444Y2382D01*
X746Y2382D02*
X766Y2382D01*
X424Y2381D02*
X444Y2381D01*
X746Y2381D02*
X766Y2381D01*
X424Y2380D02*
X444Y2380D01*
X746Y2380D02*
X766Y2380D01*
X424Y2379D02*
X445Y2379D01*
X746Y2379D02*
X766Y2379D01*
X424Y2378D02*
X445Y2378D01*
X486Y2378D02*
X486Y2378D01*
X705Y2378D02*
X705Y2378D01*
X746Y2378D02*
X766Y2378D01*
X424Y2377D02*
X445Y2377D01*
X486Y2377D02*
X486Y2377D01*
X705Y2377D02*
X705Y2377D01*
X746Y2377D02*
X766Y2377D01*
X424Y2376D02*
X445Y2376D01*
X485Y2376D02*
X486Y2376D01*
X705Y2376D02*
X705Y2376D01*
X745Y2376D02*
X766Y2376D01*
X424Y2375D02*
X446Y2375D01*
X485Y2375D02*
X486Y2375D01*
X705Y2375D02*
X705Y2375D01*
X745Y2375D02*
X766Y2375D01*
X424Y2374D02*
X446Y2374D01*
X485Y2374D02*
X486Y2374D01*
X705Y2374D02*
X706Y2374D01*
X745Y2374D02*
X766Y2374D01*
X424Y2373D02*
X447Y2373D01*
X484Y2373D02*
X486Y2373D01*
X705Y2373D02*
X706Y2373D01*
X744Y2373D02*
X766Y2373D01*
X424Y2372D02*
X447Y2372D01*
X484Y2372D02*
X486Y2372D01*
X705Y2372D02*
X707Y2372D01*
X743Y2372D02*
X766Y2372D01*
X424Y2371D02*
X448Y2371D01*
X483Y2371D02*
X486Y2371D01*
X705Y2371D02*
X708Y2371D01*
X743Y2371D02*
X766Y2371D01*
X424Y2370D02*
X449Y2370D01*
X482Y2370D02*
X486Y2370D01*
X705Y2370D02*
X708Y2370D01*
X742Y2370D02*
X766Y2370D01*
X424Y2369D02*
X449Y2369D01*
X481Y2369D02*
X486Y2369D01*
X705Y2369D02*
X709Y2369D01*
X741Y2369D02*
X766Y2369D01*
X424Y2368D02*
X450Y2368D01*
X481Y2368D02*
X486Y2368D01*
X705Y2368D02*
X710Y2368D01*
X740Y2368D02*
X766Y2368D01*
X424Y2367D02*
X451Y2367D01*
X479Y2367D02*
X486Y2367D01*
X705Y2367D02*
X711Y2367D01*
X739Y2367D02*
X766Y2367D01*
X424Y2366D02*
X453Y2366D01*
X478Y2366D02*
X486Y2366D01*
X705Y2366D02*
X712Y2366D01*
X738Y2366D02*
X766Y2366D01*
X424Y2365D02*
X454Y2365D01*
X477Y2365D02*
X486Y2365D01*
X705Y2365D02*
X714Y2365D01*
X736Y2365D02*
X766Y2365D01*
X424Y2364D02*
X456Y2364D01*
X475Y2364D02*
X486Y2364D01*
X705Y2364D02*
X716Y2364D01*
X735Y2364D02*
X766Y2364D01*
X424Y2363D02*
X459Y2363D01*
X472Y2363D02*
X486Y2363D01*
X705Y2363D02*
X718Y2363D01*
X732Y2363D02*
X766Y2363D01*
X425Y2362D02*
X461Y2362D01*
X470Y2362D02*
X485Y2362D01*
X705Y2362D02*
X720Y2362D01*
X730Y2362D02*
X766Y2362D01*
D02*
G04 End of Copper1*
M02*