G04 MADE WITH FRITZING*
G04 WWW.FRITZING.ORG*
G04 DOUBLE SIDED*
G04 HOLES PLATED*
G04 CONTOUR ON CENTER OF CONTOUR VECTOR*
%ASAXBY*%
%FSLAX23Y23*%
%MOIN*%
%OFA0B0*%
%SFA1.0B1.0*%
%ADD10C,0.049370*%
%ADD11C,0.092000*%
%ADD12C,0.139921*%
%ADD13C,0.085000*%
%ADD14C,0.090000*%
%ADD15C,0.148425*%
%ADD16C,0.105000*%
%ADD17C,0.061496*%
%ADD18C,0.072000*%
%ADD19R,0.092000X0.092000*%
%ADD20R,0.085000X0.085000*%
%ADD21R,0.090000X0.090000*%
%ADD22R,0.105000X0.105000*%
%ADD23R,0.001000X0.001000*%
%LNMASK0*%
G90*
G70*
G54D10*
X1070Y2642D03*
X1096Y2216D03*
X996Y2143D03*
X1746Y2216D03*
X1895Y2216D03*
X1720Y1693D03*
X1895Y1693D03*
X1545Y1743D03*
X1647Y1442D03*
X1446Y1317D03*
X1247Y1317D03*
X1670Y1168D03*
X1571Y566D03*
X1697Y1244D03*
X1647Y1317D03*
X946Y192D03*
X1121Y192D03*
X1396Y893D03*
X870Y493D03*
X1244Y290D03*
X323Y218D03*
X998Y1992D03*
X945Y1442D03*
G54D11*
X321Y92D03*
X421Y92D03*
X521Y92D03*
G54D12*
X1871Y92D03*
X96Y92D03*
X1871Y2667D03*
X96Y2667D03*
G54D13*
X721Y442D03*
X821Y442D03*
X971Y442D03*
X1071Y442D03*
G54D11*
X1296Y642D03*
X1396Y642D03*
X1496Y642D03*
X1271Y1167D03*
X1371Y1167D03*
X1471Y1167D03*
X1271Y1692D03*
X1371Y1692D03*
X1471Y1692D03*
X1271Y2217D03*
X1371Y2217D03*
X1471Y2217D03*
G54D14*
X1746Y2467D03*
X1746Y2330D03*
X1746Y892D03*
X1746Y755D03*
X1746Y1417D03*
X1746Y1280D03*
X1746Y1942D03*
X1746Y1805D03*
G54D15*
X246Y2492D03*
G54D16*
X738Y2492D03*
G54D17*
X726Y2382D03*
G54D18*
X196Y842D03*
X196Y942D03*
X196Y1042D03*
X196Y1142D03*
X196Y1242D03*
X196Y1342D03*
X196Y1442D03*
X196Y1542D03*
X196Y1642D03*
G54D15*
X946Y2492D03*
G54D18*
X196Y1742D03*
X196Y1842D03*
X196Y1942D03*
X196Y2042D03*
X196Y2142D03*
X196Y2242D03*
X196Y2342D03*
X996Y1942D03*
X996Y1842D03*
X996Y1742D03*
X996Y1642D03*
X996Y1542D03*
X996Y1442D03*
X996Y1342D03*
X996Y1242D03*
X996Y1142D03*
X996Y1042D03*
X996Y942D03*
X996Y842D03*
G54D17*
X466Y2382D03*
G54D16*
X454Y2492D03*
G54D11*
X846Y92D03*
X946Y92D03*
X1046Y92D03*
X1546Y892D03*
X1248Y892D03*
X1546Y1417D03*
X1248Y1417D03*
X1521Y1942D03*
X1223Y1942D03*
X1521Y2467D03*
X1223Y2467D03*
G54D13*
X1171Y1017D03*
X1571Y1017D03*
X1571Y1542D03*
X1171Y1542D03*
X1571Y2067D03*
X1171Y2067D03*
X1571Y2592D03*
X1171Y2592D03*
X396Y442D03*
X496Y442D03*
X146Y442D03*
X246Y442D03*
G54D11*
X1371Y492D03*
X1371Y194D03*
G54D14*
X1746Y442D03*
X1746Y305D03*
G54D19*
X321Y92D03*
G54D20*
X721Y442D03*
X971Y442D03*
G54D19*
X1296Y642D03*
X1271Y1167D03*
X1271Y1692D03*
X1271Y2217D03*
G54D21*
X1746Y2467D03*
X1746Y892D03*
X1746Y1417D03*
X1746Y1942D03*
G54D22*
X738Y2492D03*
X454Y2492D03*
G54D19*
X846Y92D03*
X1547Y892D03*
X1547Y1417D03*
X1522Y1942D03*
X1522Y2467D03*
G54D20*
X396Y442D03*
X146Y442D03*
G54D19*
X1371Y493D03*
G54D21*
X1746Y442D03*
G54D23*
X420Y2408D02*
X491Y2408D01*
X700Y2408D02*
X771Y2408D01*
X419Y2407D02*
X491Y2407D01*
X700Y2407D02*
X771Y2407D01*
X419Y2406D02*
X491Y2406D01*
X700Y2406D02*
X771Y2406D01*
X419Y2405D02*
X491Y2405D01*
X700Y2405D02*
X771Y2405D01*
X419Y2404D02*
X491Y2404D01*
X700Y2404D02*
X771Y2404D01*
X419Y2403D02*
X491Y2403D01*
X700Y2403D02*
X771Y2403D01*
X419Y2402D02*
X491Y2402D01*
X700Y2402D02*
X771Y2402D01*
X419Y2401D02*
X491Y2401D01*
X700Y2401D02*
X771Y2401D01*
X419Y2400D02*
X491Y2400D01*
X700Y2400D02*
X771Y2400D01*
X419Y2399D02*
X491Y2399D01*
X700Y2399D02*
X771Y2399D01*
X419Y2398D02*
X462Y2398D01*
X469Y2398D02*
X491Y2398D01*
X700Y2398D02*
X722Y2398D01*
X729Y2398D02*
X771Y2398D01*
X419Y2397D02*
X458Y2397D01*
X473Y2397D02*
X491Y2397D01*
X700Y2397D02*
X718Y2397D01*
X732Y2397D02*
X771Y2397D01*
X419Y2396D02*
X457Y2396D01*
X474Y2396D02*
X491Y2396D01*
X700Y2396D02*
X716Y2396D01*
X734Y2396D02*
X771Y2396D01*
X419Y2395D02*
X455Y2395D01*
X476Y2395D02*
X491Y2395D01*
X700Y2395D02*
X715Y2395D01*
X735Y2395D02*
X771Y2395D01*
X419Y2394D02*
X454Y2394D01*
X477Y2394D02*
X491Y2394D01*
X700Y2394D02*
X714Y2394D01*
X737Y2394D02*
X771Y2394D01*
X419Y2393D02*
X453Y2393D01*
X478Y2393D02*
X491Y2393D01*
X700Y2393D02*
X713Y2393D01*
X738Y2393D02*
X771Y2393D01*
X419Y2392D02*
X452Y2392D01*
X479Y2392D02*
X491Y2392D01*
X700Y2392D02*
X712Y2392D01*
X738Y2392D02*
X771Y2392D01*
X419Y2391D02*
X452Y2391D01*
X479Y2391D02*
X491Y2391D01*
X700Y2391D02*
X711Y2391D01*
X739Y2391D02*
X771Y2391D01*
X419Y2390D02*
X451Y2390D01*
X480Y2390D02*
X491Y2390D01*
X700Y2390D02*
X711Y2390D01*
X740Y2390D02*
X771Y2390D01*
X419Y2389D02*
X450Y2389D01*
X480Y2389D02*
X491Y2389D01*
X700Y2389D02*
X710Y2389D01*
X740Y2389D02*
X771Y2389D01*
X419Y2388D02*
X450Y2388D01*
X481Y2388D02*
X491Y2388D01*
X700Y2388D02*
X710Y2388D01*
X741Y2388D02*
X771Y2388D01*
X419Y2387D02*
X450Y2387D01*
X481Y2387D02*
X491Y2387D01*
X700Y2387D02*
X710Y2387D01*
X741Y2387D02*
X771Y2387D01*
X419Y2386D02*
X450Y2386D01*
X481Y2386D02*
X491Y2386D01*
X700Y2386D02*
X709Y2386D01*
X741Y2386D02*
X771Y2386D01*
X419Y2385D02*
X449Y2385D01*
X481Y2385D02*
X491Y2385D01*
X700Y2385D02*
X709Y2385D01*
X741Y2385D02*
X771Y2385D01*
X419Y2384D02*
X449Y2384D01*
X481Y2384D02*
X491Y2384D01*
X700Y2384D02*
X709Y2384D01*
X741Y2384D02*
X771Y2384D01*
X419Y2383D02*
X449Y2383D01*
X481Y2383D02*
X491Y2383D01*
X700Y2383D02*
X709Y2383D01*
X741Y2383D02*
X771Y2383D01*
X419Y2382D02*
X449Y2382D01*
X481Y2382D02*
X491Y2382D01*
X700Y2382D02*
X709Y2382D01*
X741Y2382D02*
X771Y2382D01*
X419Y2381D02*
X449Y2381D01*
X481Y2381D02*
X491Y2381D01*
X700Y2381D02*
X709Y2381D01*
X741Y2381D02*
X771Y2381D01*
X419Y2380D02*
X449Y2380D01*
X481Y2380D02*
X491Y2380D01*
X700Y2380D02*
X709Y2380D01*
X741Y2380D02*
X771Y2380D01*
X419Y2379D02*
X450Y2379D01*
X481Y2379D02*
X491Y2379D01*
X700Y2379D02*
X709Y2379D01*
X741Y2379D02*
X771Y2379D01*
X419Y2378D02*
X450Y2378D01*
X481Y2378D02*
X491Y2378D01*
X700Y2378D02*
X710Y2378D01*
X741Y2378D02*
X771Y2378D01*
X419Y2377D02*
X450Y2377D01*
X481Y2377D02*
X491Y2377D01*
X700Y2377D02*
X710Y2377D01*
X740Y2377D02*
X771Y2377D01*
X419Y2376D02*
X451Y2376D01*
X480Y2376D02*
X491Y2376D01*
X700Y2376D02*
X710Y2376D01*
X740Y2376D02*
X771Y2376D01*
X419Y2375D02*
X451Y2375D01*
X480Y2375D02*
X491Y2375D01*
X700Y2375D02*
X711Y2375D01*
X739Y2375D02*
X771Y2375D01*
X419Y2374D02*
X452Y2374D01*
X479Y2374D02*
X491Y2374D01*
X700Y2374D02*
X712Y2374D01*
X739Y2374D02*
X771Y2374D01*
X419Y2373D02*
X453Y2373D01*
X478Y2373D02*
X491Y2373D01*
X700Y2373D02*
X712Y2373D01*
X738Y2373D02*
X771Y2373D01*
X419Y2372D02*
X453Y2372D01*
X477Y2372D02*
X491Y2372D01*
X700Y2372D02*
X713Y2372D01*
X737Y2372D02*
X771Y2372D01*
X419Y2371D02*
X454Y2371D01*
X476Y2371D02*
X491Y2371D01*
X700Y2371D02*
X714Y2371D01*
X736Y2371D02*
X771Y2371D01*
X419Y2370D02*
X456Y2370D01*
X475Y2370D02*
X491Y2370D01*
X700Y2370D02*
X715Y2370D01*
X735Y2370D02*
X771Y2370D01*
X419Y2369D02*
X457Y2369D01*
X474Y2369D02*
X491Y2369D01*
X700Y2369D02*
X717Y2369D01*
X734Y2369D02*
X771Y2369D01*
X419Y2368D02*
X459Y2368D01*
X472Y2368D02*
X491Y2368D01*
X700Y2368D02*
X719Y2368D01*
X732Y2368D02*
X771Y2368D01*
X419Y2367D02*
X491Y2367D01*
X700Y2367D02*
X771Y2367D01*
X419Y2366D02*
X491Y2366D01*
X700Y2366D02*
X771Y2366D01*
X419Y2365D02*
X491Y2365D01*
X700Y2365D02*
X771Y2365D01*
X419Y2364D02*
X491Y2364D01*
X700Y2364D02*
X771Y2364D01*
X419Y2363D02*
X491Y2363D01*
X700Y2363D02*
X771Y2363D01*
X419Y2362D02*
X491Y2362D01*
X700Y2362D02*
X771Y2362D01*
X419Y2361D02*
X491Y2361D01*
X700Y2361D02*
X771Y2361D01*
X419Y2360D02*
X491Y2360D01*
X700Y2360D02*
X771Y2360D01*
X419Y2359D02*
X491Y2359D01*
X700Y2359D02*
X771Y2359D01*
X419Y2358D02*
X491Y2358D01*
X700Y2358D02*
X771Y2358D01*
X420Y2357D02*
X490Y2357D01*
X700Y2357D02*
X771Y2357D01*
D02*
G04 End of Mask0*
M02*